<?xml version="1.0" encoding="UTF-8" standalone="no"?>
<!DOCTYPE svg PUBLIC "-//W3C//DTD SVG 1.1//EN" "http://www.w3.org/Graphics/SVG/1.1/DTD/svg11.dtd">
<svg version="1.1" xmlns="http://www.w3.org/2000/svg" xmlns:xlink="http://www.w3.org/1999/xlink" preserveAspectRatio="xMidYMid meet" viewBox="0 0 640 640" width="64" height="64"><defs><path d="M619.83 0C630.97 0 640 9.03 640 20.17C640 144.64 640 497.86 640 622.32C640 633.46 630.97 642.49 619.83 642.49C495.86 642.49 144.14 642.49 20.17 642.49C9.03 642.49 0 633.46 0 622.32C0 497.86 0 144.64 0 20.17C0 9.03 9.03 0 20.17 0C144.14 0 495.86 0 619.83 0Z" id="dOYzsmpxg"></path><path d="M270.35 389.05C271.76 387.64 271.76 385.36 270.35 383.95C267.67 381.27 246.24 359.84 243.56 357.16C242.15 355.76 239.87 355.76 238.46 357.16C237.05 358.57 237.05 360.86 238.46 362.27C241.14 364.95 262.57 386.37 265.24 389.05C265.95 389.76 266.87 390.11 267.8 390.11C268.72 390.11 269.64 389.76 270.35 389.05Z" id="d128p29LgO"></path><path d="M535.99 86.33C534.39 84.73 532.26 83.85 530 83.85C528.33 83.85 526.7 84.34 525.31 85.27C524.78 85.63 522.11 87.41 517.31 90.61C516.14 89.45 515.5 88.8 515.37 88.67C513.78 87.08 511.2 87.08 509.61 88.67C508.02 90.26 508.02 92.84 509.61 94.43C509.67 94.48 509.93 94.75 510.41 95.22C506.73 97.67 504.69 99.04 504.28 99.31C502.17 100.72 500.81 102.98 500.56 105.52C500.44 106.78 500.6 108.04 501.01 109.2C500.79 109.41 499.68 110.45 497.68 112.32C495.59 110.24 494.43 109.08 494.2 108.84C495.11 107.37 495.77 105.82 496.12 104.26C496.85 100.91 496.08 97.78 493.99 95.69C492.44 94.14 490.26 93.29 487.87 93.29C484.37 93.29 480.64 95.02 477.63 98.02C472.39 103.26 471.36 110.45 475.3 114.38C476.85 115.93 479.02 116.79 481.42 116.79C483.75 116.79 486.19 116 488.44 114.6C488.66 114.82 489.76 115.91 491.73 117.88L475.45 133.1C473.8 131.45 472.88 130.53 472.69 130.35C473.61 128.88 474.27 127.32 474.61 125.77C475.35 122.41 474.57 119.29 472.48 117.2C470.93 115.65 468.76 114.8 466.36 114.8C462.86 114.8 459.13 116.52 456.12 119.53C450.88 124.77 449.86 131.96 453.79 135.89C455.34 137.44 457.51 138.29 459.91 138.29C462.25 138.29 464.68 137.51 466.94 136.1C467.11 136.28 467.96 137.13 469.5 138.66C413.78 190.75 382.83 219.69 376.64 225.48C361.93 215.24 345.18 209.08 329.05 208.05C310.69 206.87 294.3 212.51 282.88 223.93C281.41 225.41 280.01 226.87 278.67 228.32C273.98 223.63 250.55 200.19 208.36 158.01C208.36 158.01 208.36 158.01 208.36 158.01C208.36 158.01 208.36 158 208.35 158C206.94 156.59 195.6 145.25 194.18 143.84C189.99 139.64 184.41 137.33 178.48 137.33C173.93 137.33 169.6 138.7 165.93 141.23C165.72 141.02 164.02 139.32 163.81 139.11C162.22 137.52 159.65 137.52 158.06 139.11C156.47 140.7 156.47 143.28 158.06 144.87C168.58 155.39 252.72 239.53 263.24 250.05C263.05 250.43 262.85 250.82 262.66 251.2C260.56 254.72 255.76 260.99 246.84 264.64C243.65 265.95 241.6 269.01 241.61 272.44C241.62 275.78 243.53 278.63 246.59 279.87C246.69 279.91 247.77 280.41 247.77 280.41C249.01 280.9 249.92 281.58 250.53 282.5C252.33 285.19 251.4 290.21 248.03 295.9C244.02 302.69 237.18 309.64 228.78 315.47C216.93 323.69 203.64 328.21 195.69 326.71C193.4 326.27 191.78 325.37 190.89 324.04C190.82 323.93 190.14 322.82 187.81 317.13C186.66 314.35 184.08 312.62 181.06 312.61C181.05 312.61 181.04 312.61 181.03 312.61C177.95 312.61 175.18 314.46 173.98 317.33C172.31 321.3 169.92 324.86 166.89 327.89C163.49 331.3 159.34 333.91 154.91 335.45C137.74 341.38 123.51 349.67 113.75 359.43C97.59 375.6 91.59 398.63 96.87 424.29C101.75 448.02 115.68 472.34 136.1 492.76C156.52 513.17 180.84 527.11 204.57 531.99C210.64 533.23 216.57 533.85 222.29 533.85C240.74 533.85 257.08 527.44 269.42 515.1C279.17 505.35 287.46 491.13 293.41 473.96C296.36 465.42 302.97 458.47 311.51 454.88C312.46 454.48 313.31 453.92 314.02 453.21C315.82 451.41 316.6 448.85 316.1 446.35C315.62 443.93 314.02 441.99 311.72 441.04C306.13 438.75 304.99 438.08 304.82 437.96C303.48 437.07 302.59 435.46 302.15 433.18C300.65 425.24 305.16 411.93 313.38 400.07C319.21 391.67 326.16 384.84 332.95 380.82C338.65 377.46 343.66 376.52 346.36 378.33C347.27 378.94 347.96 379.85 348.46 381.11C348.51 381.22 348.92 382.13 348.98 382.24C350.22 385.32 353.07 387.24 356.41 387.25C356.42 387.25 356.43 387.25 356.44 387.25C359.85 387.25 362.91 385.19 364.22 382C367.89 373.05 374.16 368.28 377.66 366.2C378.04 366.01 378.43 365.82 378.81 365.62C392.17 378.98 499.03 485.84 512.39 499.2C513.18 499.99 514.23 500.39 515.27 500.39C516.31 500.39 517.35 499.99 518.14 499.2C519.73 497.61 519.73 495.03 518.14 493.44C516.85 492.15 510.39 485.68 498.75 474.05L511.57 461.22C444.95 394.6 407.93 357.58 400.53 350.18C401.98 348.84 403.44 347.45 404.92 345.97C416.33 334.56 421.97 318.17 420.8 299.82C419.77 283.69 413.6 266.94 403.36 252.23C408.46 246.78 433.94 219.53 479.8 170.47C482.14 172.81 483.44 174.11 483.69 174.37C482.78 175.84 482.12 177.39 481.78 178.95C481.04 182.3 481.82 185.43 483.91 187.52C485.46 189.07 487.63 189.92 490.03 189.92C493.53 189.92 497.26 188.2 500.27 185.19C505.51 179.95 506.53 172.76 502.6 168.83C501.05 167.28 498.88 166.42 496.48 166.42C494.14 166.42 491.71 167.21 489.45 168.61C489.18 168.34 487.81 166.98 485.36 164.52L500.58 148.24C503.35 151.01 504.89 152.55 505.19 152.86C502.3 157.54 502.24 162.83 505.41 166.01C506.96 167.56 509.14 168.41 511.53 168.41C515.03 168.41 518.77 166.69 521.77 163.68C524.04 161.41 525.63 158.64 526.23 155.89C526.97 152.53 526.19 149.41 524.1 147.32C522.55 145.77 520.38 144.92 517.98 144.92C515.65 144.92 513.21 145.7 510.95 147.11C510.63 146.78 509.03 145.18 506.14 142.29C514.25 133.62 518.76 128.8 519.66 127.84C520.56 128.16 521.52 128.34 522.5 128.34C525.34 128.34 527.97 126.93 529.55 124.58C529.82 124.17 531.18 122.13 533.63 118.45C534.11 118.93 534.38 119.2 534.43 119.25C535.23 120.05 536.27 120.44 537.31 120.44C538.35 120.44 539.39 120.05 540.19 119.25C541.78 117.66 541.78 115.09 540.19 113.5C540.06 113.37 539.41 112.72 538.24 111.55C541.44 106.75 543.22 104.08 543.58 103.55C545.82 100.21 545.37 95.72 542.53 92.87C541.22 91.56 536.64 86.98 535.99 86.33ZM483.38 103.78C485.01 102.16 486.8 101.43 487.87 101.43C488.04 101.43 488.15 101.45 488.22 101.47C488.4 102.06 488 104.2 485.9 106.3C484.28 107.92 482.48 108.65 481.42 108.65C481.25 108.65 481.13 108.63 481.06 108.61C480.88 108.02 481.28 105.88 483.38 103.78ZM461.87 125.29C463.5 123.66 465.3 122.94 466.36 122.94C466.53 122.94 466.64 122.96 466.71 122.97C466.9 123.56 466.5 125.7 464.39 127.81C462.77 129.43 460.97 130.16 459.91 130.16C459.74 130.15 459.62 130.14 459.56 130.12C459.37 129.53 459.77 127.39 461.87 125.29ZM494.51 179.43C492.89 181.05 491.09 181.78 490.03 181.78C489.86 181.78 489.74 181.76 489.68 181.74C489.49 181.15 489.89 179.02 491.99 176.91C493.62 175.29 495.42 174.56 496.48 174.56C496.65 174.57 496.77 174.58 496.83 174.6C497.02 175.19 496.62 177.33 494.51 179.43ZM516.02 157.93C514.4 159.55 512.6 160.27 511.54 160.27C511.37 160.27 511.25 160.26 511.18 160.24C511 159.65 511.4 157.51 513.5 155.41C515.13 153.78 516.92 153.06 517.99 153.06C518.16 153.06 518.27 153.08 518.34 153.09C518.52 153.68 518.12 155.82 516.02 157.93ZM513.34 122.67L510.77 125.42L503.43 118.08L506.18 115.51L513.34 122.67ZM328.53 216.17C342.67 217.08 357.4 222.37 370.54 231.18C367.48 234.05 352.14 248.39 324.54 274.19C300.47 250.13 287.1 236.76 284.43 234.08C285.76 232.63 287.16 231.17 288.64 229.69C298.52 219.81 312.32 215.13 328.53 216.17ZM349.1 310.27C372.78 333.94 385.93 347.09 388.56 349.72C385.78 351.9 383.02 353.83 380.23 355.53C377.7 353 365.05 340.35 342.27 317.57L349.1 310.27ZM317.04 292.34L324.35 285.51L343.34 304.51L336.52 311.81L317.04 292.34ZM310.54 339.6L289.26 318.32L311.09 297.9L330.95 317.76L310.54 339.6ZM273.33 248.62C275.02 245.84 276.95 243.08 279.14 240.3C281.77 242.93 294.92 256.08 318.59 279.75L311.28 286.58C288.51 263.81 275.86 251.15 273.33 248.62ZM178.48 145.47C182.24 145.47 185.77 146.94 188.43 149.59C188.63 149.8 190.26 151.42 190.46 151.63C186.82 151.99 183.25 153.25 180.11 155.41C179.56 154.86 176.8 152.1 171.84 147.14C174.69 146.03 176.91 145.47 178.48 145.47ZM202.59 163.76C209.67 170.83 266.26 227.43 273.34 234.5C271.14 237.24 269.18 239.97 267.42 242.72C261.99 237.29 234.86 210.16 186.02 161.32C194.08 159.96 199.6 160.77 202.59 163.76ZM171.89 450.99L177.86 456.97C158.08 476.75 147.09 487.74 144.89 489.94C143.87 488.97 142.86 488 141.86 487C140.86 486 139.89 484.98 138.92 483.97C143.31 479.57 154.3 468.58 171.89 450.99ZM177.12 444.71L202.94 405.83L223.02 425.91L184.14 451.73L177.12 444.71ZM356.41 378.93C356.23 378.5 356.08 378.12 355.89 377.78C354.78 375.14 353.1 373.05 350.89 371.57C340.13 364.37 321.12 374.63 306.69 395.43C297.01 409.4 292.21 424.44 294.16 434.7C295 439.14 297.13 442.61 300.29 444.73C301.02 445.22 302.42 445.98 307.09 447.93C297.02 452.57 289.28 461.01 285.72 471.29C280.25 487.07 272.42 500.59 263.67 509.34C245.51 527.5 222.4 527.34 206.21 524.01C187.41 520.15 168.14 510.1 150.95 495.39C153.3 493.04 165.05 481.29 186.21 460.13L235.81 427.19L201.66 393.04L168.72 442.65C147.57 463.8 135.82 475.55 133.47 477.9C118.75 460.71 108.71 441.44 104.84 422.64C101.51 406.45 101.35 383.34 119.51 365.19C128.27 356.42 141.79 348.59 157.57 343.14C163.17 341.2 168.38 337.92 172.65 333.65C176.1 330.19 178.88 326.2 180.92 321.76C183.15 327.1 183.82 328.11 184.12 328.56C186.25 331.73 189.72 333.86 194.17 334.7C204.43 336.65 219.47 331.84 233.42 322.16C254.22 307.73 264.49 288.73 257.29 277.96C255.8 275.75 253.71 274.07 251.07 272.97C250.71 272.77 250.28 272.59 249.75 272.37C249.76 272.3 249.8 272.22 249.93 272.17C260.48 267.86 266.42 260.54 269.24 256.05C271.65 258.45 283.68 270.49 305.34 292.14L277.55 318.12L310.74 351.31L336.71 323.52C358.37 345.18 370.41 357.21 372.81 359.62C368.33 362.43 361.02 368.34 356.69 378.91C356.63 379.05 356.47 378.92 356.41 378.93ZM492.99 468.29L477.83 453.13L484.9 446.06L500.06 461.22L492.99 468.29ZM472.07 447.37C420.51 395.81 391.87 367.17 386.14 361.44C388.89 359.68 391.61 357.71 394.35 355.51C400 361.17 428.27 389.43 479.14 440.3L472.07 447.37ZM399.17 340.21C397.68 341.69 396.22 343.09 394.77 344.42C392.1 341.75 378.73 328.38 354.67 304.32C380.47 276.72 394.8 261.39 397.67 258.33C406.47 271.46 411.77 286.19 412.67 300.34C413.71 316.55 409.04 330.34 399.17 340.21ZM330.3 279.95L464.14 154.82L474.04 164.71L348.91 298.56L330.3 279.95ZM475.26 144.43L484.43 153.6L479.6 158.77L470.09 149.25L475.26 144.43ZM481.21 138.86L486.37 134.03L494.82 142.49L489.99 147.65L481.21 138.86ZM497.49 123.64L505.21 131.37L500.39 136.53L492.32 128.47L497.49 123.64ZM522.29 120.11C520.93 118.75 510.11 107.93 508.75 106.57C508.72 106.54 508.65 106.47 508.66 106.31C508.67 106.16 508.77 106.1 508.8 106.08C510.9 104.68 527.73 93.45 529.83 92.05C529.88 92.01 529.94 91.99 530 91.99C530.07 91.99 530.15 92.01 530.23 92.09C530.89 92.74 536.12 97.97 536.77 98.63C536.88 98.73 536.9 98.9 536.81 99.03C535.88 100.43 531.2 107.44 522.78 120.06C522.51 120.15 522.34 120.16 522.29 120.11Z" id="a64Rt8uqz"></path><path d="M249.79 334.56C251.17 336.07 251.07 338.42 249.56 339.8C249.4 339.95 248.11 341.13 247.95 341.27C247.26 341.91 246.84 342.8 246.8 343.75C246.75 344.69 247.09 345.62 247.73 346.31C247.86 346.46 248.97 347.67 249.11 347.82C250.44 349.28 252.69 349.38 254.15 348.05C255.21 347.07 255.55 345.6 255.13 344.31C258.81 340.21 258.85 333.89 255.06 329.75C253.1 327.61 250.43 326.36 247.53 326.23C244.64 326.1 241.86 327.11 239.72 329.06C236.8 331.73 213.42 353.11 210.5 355.78C208.99 357.17 206.63 357.06 205.25 355.55C203.87 354.04 203.97 351.69 205.48 350.31C205.64 350.16 206.93 348.99 207.09 348.84C207.79 348.2 208.2 347.31 208.24 346.36C208.29 345.42 207.95 344.5 207.31 343.8C207.17 343.65 206.07 342.44 205.93 342.29C204.6 340.83 202.34 340.73 200.89 342.06C199.82 343.04 199.49 344.51 199.91 345.8C196.23 349.9 196.19 356.22 199.98 360.36C202 362.57 204.73 363.75 207.51 363.88C210.28 364 213.11 363.07 215.32 361.05C218.24 358.38 241.62 337 244.54 334.33C245.27 333.66 246.22 333.31 247.22 333.36C248.21 333.4 249.12 333.83 249.79 334.56Z" id="h1z4zD7rfo"></path><path d="M295.46 384.23C294.27 382.56 291.95 382.18 290.29 383.37C290.11 383.5 288.69 384.51 288.52 384.64C287.75 385.19 286.79 385.42 285.86 385.26C284.92 385.11 284.09 384.59 283.54 383.82C283.42 383.65 282.47 382.32 282.35 382.16C281.2 380.56 281.57 378.33 283.17 377.18C284.34 376.34 285.86 376.31 287.03 376.99C291.8 374.24 297.99 375.5 301.26 380.07C302.95 382.43 303.62 385.3 303.15 388.16C302.68 391.02 301.12 393.53 298.76 395.22C295.55 397.52 269.8 415.98 266.58 418.29C264.91 419.48 264.53 421.81 265.72 423.48C266.92 425.14 269.24 425.52 270.9 424.33C271.08 424.2 272.49 423.19 272.67 423.06C273.44 422.51 274.4 422.29 275.33 422.44C276.26 422.6 277.1 423.11 277.65 423.88C277.77 424.05 278.72 425.38 278.84 425.54C279.99 427.15 279.62 429.38 278.02 430.52C276.84 431.37 275.33 431.39 274.15 430.71C269.39 433.46 263.2 432.2 259.92 427.63C258.18 425.2 257.59 422.29 258.04 419.54C258.49 416.8 259.99 414.23 262.42 412.49C265.64 410.18 291.39 391.72 294.61 389.42C295.41 388.84 295.95 387.98 296.11 387C296.27 386.02 296.04 385.03 295.46 384.23Z" id="b1TfKQRPZz"></path></defs><g><g><g><use xlink:href="#dOYzsmpxg" opacity="1" fill="#f0ecec" fill-opacity="1"></use><g><filter id="shadow11737634" x="-9" y="-9" width="659" height="661.49" filterUnits="userSpaceOnUse" primitiveUnits="userSpaceOnUse"><feFlood></feFlood><feComposite in2="SourceAlpha" operator="out"></feComposite><feGaussianBlur stdDeviation="1"></feGaussianBlur><feOffset dx="1" dy="1" result="afterOffset"></feOffset><feFlood flood-color="#ffffff" flood-opacity="0.8"></feFlood><feComposite in2="afterOffset" operator="in"></feComposite><feMorphology operator="dilate" radius="1"></feMorphology><feComposite in2="SourceAlpha" operator="in"></feComposite></filter><path d="M619.83 0C630.97 0 640 9.03 640 20.17C640 144.64 640 497.86 640 622.32C640 633.46 630.97 642.49 619.83 642.49C495.86 642.49 144.14 642.49 20.17 642.49C9.03 642.49 0 633.46 0 622.32C0 497.86 0 144.64 0 20.17C0 9.03 9.03 0 20.17 0C144.14 0 495.86 0 619.83 0Z" id="a1IUQYP155" fill="white" fill-opacity="1" filter="url(#shadow11737634)"></path></g></g><g><use xlink:href="#d128p29LgO" opacity="1" fill="#1d1919" fill-opacity="1"></use><g><use xlink:href="#d128p29LgO" opacity="1" fill-opacity="0" stroke="#000000" stroke-width="1" stroke-opacity="0"></use></g></g><g><use xlink:href="#a64Rt8uqz" opacity="1" fill="#1d1919" fill-opacity="1"></use><g><use xlink:href="#a64Rt8uqz" opacity="1" fill-opacity="0" stroke="#000000" stroke-width="1" stroke-opacity="0"></use></g></g><g><use xlink:href="#h1z4zD7rfo" opacity="1" fill="#1d1919" fill-opacity="1"></use><g><use xlink:href="#h1z4zD7rfo" opacity="1" fill-opacity="0" stroke="#000000" stroke-width="1" stroke-opacity="0"></use></g></g><g><use xlink:href="#b1TfKQRPZz" opacity="1" fill="#1d1919" fill-opacity="1"></use><g><use xlink:href="#b1TfKQRPZz" opacity="1" fill-opacity="0" stroke="#000000" stroke-width="1" stroke-opacity="0"></use></g></g></g></g></svg>