<?xml version="1.0" encoding="UTF-8" standalone="no"?>
<!DOCTYPE svg PUBLIC "-//W3C//DTD SVG 1.1//EN" "http://www.w3.org/Graphics/SVG/1.1/DTD/svg11.dtd">
<svg version="1.1" xmlns="http://www.w3.org/2000/svg" xmlns:xlink="http://www.w3.org/1999/xlink" preserveAspectRatio="xMidYMid meet" viewBox="0 0 640 640" width="512" height="512"><defs><path d="M627.18 3.52C624.91 1.25 621.88 0 618.67 0C616.29 0 613.98 0.7 611.99 2.02C611.23 2.53 607.44 5.06 600.62 9.62C598.96 7.96 598.04 7.04 597.85 6.86C595.6 4.6 591.93 4.6 589.67 6.86C587.41 9.12 587.41 12.78 589.67 15.04C589.74 15.12 590.12 15.5 590.8 16.17C585.57 19.66 582.67 21.6 582.09 21.98C579.08 23.99 577.15 27.21 576.8 30.81C576.62 32.61 576.85 34.4 577.44 36.05C577.12 36.35 575.54 37.83 572.69 40.49C569.73 37.52 568.08 35.88 567.75 35.55C569.04 33.45 569.99 31.24 570.47 29.03C571.52 24.26 570.42 19.81 567.45 16.84C565.24 14.64 562.15 13.42 558.74 13.42C553.77 13.42 548.46 15.88 544.18 20.16C536.73 27.61 535.27 37.83 540.86 43.42C543.07 45.63 546.16 46.84 549.57 46.84C552.89 46.84 556.35 45.73 559.56 43.73C559.87 44.04 561.43 45.6 564.23 48.4L541.08 70.05C538.73 67.7 537.42 66.39 537.16 66.13C538.46 64.04 539.4 61.83 539.89 59.62C540.94 54.84 539.83 50.4 536.86 47.43C534.66 45.22 531.57 44.01 528.16 44.01C523.18 44.01 517.87 46.46 513.59 50.74C506.14 58.19 504.68 68.41 510.28 74.01C512.48 76.21 515.57 77.43 518.98 77.43C522.3 77.43 525.77 76.31 528.98 74.32C529.22 74.56 530.43 75.77 532.62 77.96C453.38 152.04 409.36 193.2 400.55 201.43C379.63 186.86 355.81 178.1 332.87 176.63C306.77 174.96 283.45 182.99 267.21 199.22C265.11 201.32 263.12 203.4 261.22 205.47C254.56 198.8 221.22 165.47 161.22 105.46C161.22 105.46 161.22 105.46 161.22 105.46C161.22 105.46 161.22 105.46 161.22 105.46C159.2 103.44 143.08 87.33 141.06 85.31C135.1 79.35 127.17 76.06 118.73 76.06C112.26 76.06 106.1 78.01 100.88 81.6C100.58 81.3 98.17 78.89 97.87 78.59C95.61 76.33 91.94 76.33 89.68 78.59C87.42 80.85 87.42 84.52 89.68 86.78C104.64 101.74 224.31 221.41 239.27 236.37C239 236.91 238.72 237.46 238.46 238.01C235.46 243.01 228.64 251.93 215.96 257.12C211.42 258.98 208.49 263.34 208.51 268.22C208.52 272.97 211.25 277.02 215.6 278.78C215.73 278.84 217.27 279.55 217.27 279.55C219.03 280.24 220.33 281.22 221.2 282.52C223.76 286.36 222.44 293.48 217.65 301.58C211.94 311.24 202.21 321.13 190.26 329.41C173.41 341.11 154.51 347.54 143.2 345.39C139.95 344.78 137.65 343.5 136.38 341.6C136.28 341.45 135.32 339.87 131.99 331.77C130.37 327.82 126.69 325.36 122.39 325.35C122.38 325.35 122.37 325.35 122.36 325.35C117.97 325.35 114.04 327.98 112.33 332.05C109.95 337.71 106.56 342.77 102.24 347.08C97.4 351.92 91.51 355.64 85.2 357.83C60.79 366.26 40.55 378.06 26.67 391.93C3.68 414.93 -4.85 447.68 2.66 484.17C9.6 517.93 29.42 552.51 58.46 581.56C87.5 610.59 122.08 630.41 155.83 637.35C164.47 639.12 172.9 640 181.04 640C207.28 640 230.52 630.88 248.07 613.33C261.93 599.46 273.73 579.23 282.19 554.82C286.38 542.68 295.77 532.79 307.93 527.68C309.28 527.12 310.48 526.32 311.49 525.31C314.05 522.75 315.16 519.1 314.45 515.56C313.77 512.11 311.5 509.36 308.22 508C300.28 504.74 298.66 503.79 298.41 503.63C296.51 502.36 295.24 500.07 294.62 496.82C292.48 485.53 298.89 466.61 310.59 449.74C318.87 437.79 328.76 428.07 338.42 422.36C346.52 417.57 353.65 416.25 357.49 418.81C358.79 419.68 359.76 420.98 360.48 422.77C360.55 422.93 361.14 424.22 361.21 424.38C362.98 428.75 367.03 431.48 371.78 431.49C371.8 431.49 371.81 431.49 371.82 431.49C376.68 431.49 381.02 428.57 382.89 424.04C388.11 411.3 397.02 404.52 402 401.56C402.55 401.3 403.1 401.02 403.64 400.74C422.64 419.74 574.62 571.72 593.62 590.71C594.75 591.84 596.23 592.41 597.71 592.41C599.19 592.41 600.67 591.84 601.8 590.71C604.06 588.45 604.06 584.79 601.8 582.53C599.96 580.69 590.77 571.49 574.22 554.94L592.46 536.71C497.7 441.95 445.06 389.31 434.53 378.78C436.6 376.88 438.67 374.89 440.77 372.79C457 356.56 465.02 333.25 463.35 307.15C461.89 284.21 453.12 260.39 438.56 239.47C445.81 231.72 482.04 192.96 547.27 123.2C550.59 126.52 552.44 128.37 552.81 128.74C551.51 130.83 550.57 133.04 550.08 135.25C549.03 140.02 550.14 144.46 553.11 147.44C555.31 149.64 558.41 150.85 561.81 150.85C566.79 150.85 572.1 148.4 576.38 144.12C583.83 136.67 585.29 126.45 579.69 120.85C577.49 118.65 574.4 117.44 570.99 117.44C567.67 117.44 564.2 118.55 560.99 120.55C560.6 120.16 558.67 118.22 555.18 114.73L576.82 91.58C580.76 95.52 582.95 97.7 583.39 98.14C579.27 104.8 579.18 112.33 583.7 116.85C585.9 119.05 588.99 120.27 592.4 120.27C597.38 120.27 602.69 117.81 606.96 113.54C610.19 110.31 612.45 106.37 613.31 102.46C614.36 97.68 613.25 93.24 610.28 90.27C608.08 88.06 604.98 86.85 601.57 86.85C598.25 86.85 594.79 87.96 591.58 89.96C591.12 89.51 588.84 87.22 584.73 83.12C596.26 70.78 602.67 63.93 603.95 62.56C605.24 63.02 606.6 63.27 608 63.27C612.04 63.27 615.78 61.27 618.02 57.92C618.4 57.34 620.34 54.43 623.83 49.21C624.51 49.89 624.89 50.27 624.97 50.35C626.1 51.48 627.58 52.04 629.06 52.04C630.54 52.04 632.02 51.48 633.15 50.35C635.41 48.09 635.41 44.42 633.15 42.16C632.97 41.98 632.04 41.05 630.38 39.39C634.94 32.57 637.47 28.77 637.98 28.01C641.16 23.26 640.53 16.87 636.48 12.83C634.62 10.97 628.11 4.45 627.18 3.52ZM552.36 28.34C554.67 26.04 557.23 25 558.74 25C558.98 25 559.15 25.03 559.24 25.05C559.5 25.89 558.94 28.93 555.94 31.93C553.64 34.23 551.08 35.27 549.57 35.27C549.33 35.27 549.16 35.24 549.07 35.21C548.8 34.37 549.37 31.33 552.36 28.34ZM521.77 58.93C524.08 56.62 526.64 55.59 528.15 55.59C528.39 55.59 528.56 55.62 528.65 55.64C528.92 56.48 528.35 59.52 525.36 62.51C523.05 64.82 520.49 65.85 518.98 65.85C518.74 65.85 518.57 65.83 518.48 65.8C518.22 64.96 518.78 61.92 521.77 58.93ZM568.2 135.94C565.89 138.25 563.33 139.28 561.82 139.28C561.58 139.28 561.41 139.25 561.32 139.23C561.05 138.39 561.62 135.35 564.61 132.36C566.92 130.05 569.48 129.01 570.99 129.01C571.23 129.02 571.4 129.04 571.49 129.07C571.75 129.91 571.18 132.95 568.2 135.94ZM598.78 105.35C596.47 107.66 593.92 108.69 592.4 108.69C592.16 108.69 592 108.66 591.9 108.64C591.64 107.8 592.21 104.76 595.2 101.77C597.51 99.46 600.07 98.43 601.58 98.43C601.82 98.43 601.99 98.45 602.08 98.48C602.34 99.32 601.77 102.36 598.78 105.35ZM594.98 55.21L591.32 59.12L580.88 48.68L584.79 45.03L594.98 55.21ZM332.13 188.19C352.24 189.48 373.19 197.01 391.88 209.54C387.52 213.62 365.71 234 326.45 270.7C292.23 236.48 273.22 217.47 269.41 213.66C271.3 211.6 273.29 209.52 275.4 207.41C289.45 193.36 309.07 186.71 332.13 188.19ZM361.39 322.01C395.06 355.68 413.76 374.38 417.5 378.12C413.55 381.23 409.63 383.98 405.66 386.39C402.07 382.79 384.07 364.79 351.68 332.4L361.39 322.01ZM315.79 296.52L326.18 286.81L353.2 313.82L343.49 324.21L315.79 296.52ZM306.54 363.73L276.28 333.46L307.33 304.43L335.58 332.67L306.54 363.73ZM253.62 234.34C256.03 230.38 258.77 226.46 261.88 222.5C265.62 226.24 284.33 244.95 317.99 278.61L307.6 288.33C275.21 255.94 257.22 237.94 253.62 234.34ZM118.73 87.64C124.07 87.64 129.1 89.72 132.87 93.5C133.16 93.79 135.48 96.1 135.77 96.39C130.58 96.9 125.51 98.71 121.04 101.77C120.26 100.99 116.34 97.06 109.28 90C113.34 88.43 116.5 87.64 118.73 87.64ZM153.02 113.64C163.08 123.7 243.58 204.2 253.64 214.26C250.52 218.16 247.72 222.03 245.22 225.94C237.5 218.22 198.91 179.63 129.45 110.17C140.91 108.24 148.77 109.4 153.02 113.64ZM109.35 522.16L117.85 530.65C89.71 558.79 74.08 574.42 70.95 577.55C69.51 576.17 68.07 574.79 66.65 573.37C65.22 571.95 63.84 570.5 62.46 569.05C68.71 562.8 84.35 547.17 109.35 522.16ZM116.8 513.23L153.52 457.93L182.08 486.49L126.78 523.21L116.8 513.23ZM371.79 419.66C371.53 419.05 371.31 418.52 371.05 418.03C369.46 414.27 367.07 411.3 363.93 409.2C348.62 398.95 321.6 413.55 301.08 443.14C287.31 463 280.48 484.4 283.25 498.98C284.45 505.3 287.47 510.24 291.97 513.25C293 513.94 294.99 515.03 301.64 517.8C287.32 524.39 276.3 536.41 271.25 551.03C263.47 573.47 252.33 592.69 239.88 605.14C214.06 630.97 181.19 630.74 158.16 626.01C131.42 620.51 104.02 606.22 79.57 585.3C82.92 581.96 99.63 565.24 129.72 535.15L200.27 488.31L151.7 439.74L104.85 510.29C74.77 540.37 58.05 557.09 54.71 560.43C33.78 535.98 19.5 508.58 14 481.84C9.26 458.81 9.04 425.94 34.86 400.12C47.32 387.66 66.54 376.52 88.99 368.77C96.95 366.01 104.36 361.34 110.43 355.27C115.34 350.35 119.29 344.68 122.2 338.36C125.37 345.96 126.33 347.38 126.75 348.03C129.77 352.55 134.72 355.57 141.05 356.77C155.64 359.53 177.03 352.69 196.86 338.92C226.45 318.4 241.05 291.39 230.81 276.07C228.69 272.92 225.72 270.53 221.97 268.96C221.45 268.68 220.84 268.43 220.08 268.11C220.1 268.02 220.16 267.91 220.35 267.83C235.35 261.7 243.79 251.29 247.81 244.9C251.23 248.32 268.34 265.44 299.14 296.24L259.63 333.18L306.82 380.38L343.77 340.86C374.57 371.67 391.69 388.78 395.11 392.21C388.73 396.2 378.34 404.6 372.18 419.64C372.1 419.84 371.86 419.66 371.79 419.66ZM566.03 546.76L544.47 525.19L554.52 515.14L576.09 536.71L566.03 546.76ZM536.28 517C462.95 443.67 422.21 402.94 414.07 394.79C417.97 392.28 421.85 389.49 425.74 386.36C433.78 394.4 473.98 434.6 546.33 506.95L536.28 517ZM432.59 364.6C430.48 366.71 428.4 368.7 426.34 370.59C422.54 366.79 403.53 347.77 369.3 313.55C406 274.3 426.38 252.5 430.46 248.14C442.98 266.83 450.51 287.77 451.8 307.89C453.27 330.95 446.63 350.56 432.59 364.6ZM334.65 278.89L525 100.93L539.08 115.01L361.11 305.36L334.65 278.89ZM540.81 86.15L553.85 99.2L546.99 106.54L533.46 93.02L540.81 86.15ZM549.27 78.24L556.62 71.37L568.64 83.39L561.77 90.74L549.27 78.24ZM572.42 56.59L583.41 67.58L576.55 74.93L565.08 63.46L572.42 56.59ZM607.69 51.56C605.77 49.64 590.37 34.24 588.45 32.31C588.41 32.27 588.29 32.16 588.31 31.95C588.33 31.73 588.47 31.65 588.52 31.62C591.51 29.62 615.43 13.65 618.42 11.66C618.5 11.6 618.58 11.58 618.67 11.58C618.76 11.58 618.88 11.6 619 11.71C619.93 12.64 627.37 20.08 628.3 21.01C628.45 21.17 628.47 21.41 628.35 21.59C627.02 23.58 620.37 33.55 608.39 51.49C608.01 51.62 607.77 51.64 607.69 51.56Z" id="b1vPxuegp5"></path><path d="M220.77 355.93C223.11 358.27 223.11 362.09 220.77 364.44C220.52 364.69 218.52 366.69 218.27 366.94C217.18 368.02 216.57 369.5 216.57 371.03C216.57 372.56 217.18 374.04 218.27 375.12C218.5 375.36 220.38 377.23 220.61 377.47C222.87 379.73 226.54 379.73 228.8 377.47C230.46 375.81 230.9 373.4 230.12 371.33C235.79 364.43 235.4 354.19 228.95 347.74C225.62 344.42 221.2 342.58 216.5 342.58C211.79 342.58 207.37 344.42 204.04 347.74C199.5 352.29 163.16 388.63 158.61 393.17C156.26 395.53 152.43 395.53 150.08 393.17C147.73 390.82 147.73 387.01 150.08 384.66C150.33 384.41 152.33 382.41 152.58 382.16C153.66 381.08 154.27 379.6 154.27 378.07C154.27 376.53 153.66 375.06 152.57 373.97C152.34 373.74 150.46 371.86 150.23 371.63C147.97 369.37 144.3 369.37 142.04 371.63C140.38 373.29 139.94 375.7 140.72 377.77C135.05 384.67 135.44 394.91 141.89 401.36C145.32 404.79 149.84 406.51 154.34 406.51C158.85 406.51 163.36 404.79 166.8 401.36C171.34 396.81 207.68 360.47 212.23 355.93C213.37 354.79 214.89 354.16 216.5 354.16C218.11 354.16 219.63 354.79 220.77 355.93Z" id="dbomEp6Su"></path><path d="M262.54 411.21C260.28 413.47 260.28 417.13 262.54 419.39C262.77 419.63 264.65 421.5 264.88 421.74C267.15 424 270.81 424 273.07 421.74C273.32 421.49 275.32 419.49 275.57 419.24C277.91 416.89 281.73 416.89 284.08 419.24C286.43 421.59 286.43 425.42 284.08 427.78C279.54 432.32 243.19 468.66 238.65 473.2C231.78 480.07 231.78 491.25 238.65 498.11C241.97 501.44 246.39 503.27 251.09 503.27C255.21 503.27 259.11 501.86 262.24 499.29C264.31 500.06 266.72 499.62 268.38 497.96C270.64 495.7 270.64 492.03 268.38 489.77C268.14 489.54 266.27 487.66 266.03 487.43C263.77 485.17 260.11 485.17 257.85 487.43C257.6 487.68 255.6 489.68 255.35 489.93C254.21 491.06 252.7 491.69 251.09 491.69C249.49 491.69 247.97 491.06 246.84 489.92C244.48 487.57 244.48 483.74 246.84 481.39C251.38 476.85 287.72 440.5 292.27 435.96C299.13 429.09 299.13 417.92 292.27 411.05C285.82 404.61 275.58 404.22 268.67 409.88C266.61 409.11 264.2 409.55 262.54 411.21Z" id="c4OoShqyid"></path><path d="M246.61 444.56C248.87 442.3 248.87 438.63 246.61 436.37C242.32 432.07 207.93 397.69 203.64 393.4C201.37 391.14 197.71 391.14 195.45 393.4C193.19 395.66 193.19 399.32 195.45 401.58C199.75 405.88 234.13 440.26 238.43 444.56C239.56 445.69 241.04 446.25 242.52 446.25C244 446.25 245.48 445.69 246.61 444.56Z" id="aI2jThKLy"></path></defs><g><g><g><use xlink:href="#b1vPxuegp5" opacity="1" fill="#fcf8f8" fill-opacity="1"></use><g><use xlink:href="#b1vPxuegp5" opacity="1" fill-opacity="0" stroke="#000000" stroke-width="1" stroke-opacity="0"></use></g></g><g><use xlink:href="#dbomEp6Su" opacity="1" fill="#fcf8f8" fill-opacity="1"></use><g><use xlink:href="#dbomEp6Su" opacity="1" fill-opacity="0" stroke="#000000" stroke-width="1" stroke-opacity="0"></use></g></g><g><use xlink:href="#c4OoShqyid" opacity="1" fill="#fcf8f8" fill-opacity="1"></use><g><use xlink:href="#c4OoShqyid" opacity="1" fill-opacity="0" stroke="#000000" stroke-width="1" stroke-opacity="0"></use></g></g><g><use xlink:href="#aI2jThKLy" opacity="1" fill="#fcf8f8" fill-opacity="1"></use><g><use xlink:href="#aI2jThKLy" opacity="1" fill-opacity="0" stroke="#000000" stroke-width="1" stroke-opacity="0"></use></g></g></g></g></svg>